<?xml version="1.0" encoding="UTF-8" standalone="no"?>
<svg
   xmlns:dc="http://purl.org/dc/elements/1.1/"
   xmlns:cc="http://creativecommons.org/ns#"
   xmlns:rdf="http://www.w3.org/1999/02/22-rdf-syntax-ns#"
   xmlns:svg="http://www.w3.org/2000/svg"
   xmlns="http://www.w3.org/2000/svg"
   xmlns:sodipodi="http://sodipodi.sourceforge.net/DTD/sodipodi-0.dtd"
   xmlns:inkscape="http://www.inkscape.org/namespaces/inkscape"
   version="1.1"
   id="svg2"
   xml:space="preserve"
   width="220"
   height="220"
   viewBox="0 0 220 220"
   sodipodi:docname="Logo_RGB_RSC_Identifier.eps"><metadata
     id="metadata8"><rdf:RDF><cc:Work
         rdf:about=""><dc:format>image/svg+xml</dc:format><dc:type
           rdf:resource="http://purl.org/dc/dcmitype/StillImage" /></cc:Work></rdf:RDF></metadata><defs
     id="defs6" /><sodipodi:namedview
     pagecolor="#ffffff"
     bordercolor="#666666"
     borderopacity="1"
     objecttolerance="10"
     gridtolerance="10"
     guidetolerance="10"
     inkscape:pageopacity="0"
     inkscape:pageshadow="2"
     inkscape:window-width="640"
     inkscape:window-height="480"
     id="namedview4" /><g
     id="g10"
     inkscape:groupmode="layer"
     inkscape:label="ink_ext_XXXXXX"
     transform="matrix(1.3333333,0,0,-1.3333333,0,220)"><g
       id="g12"
       transform="scale(0.1)"><path
         d="M 1590,825 C 1590,402.531 1247.5,60 824.988,60 402.496,60 59.9961,402.531 59.9961,825 c 0,422.51 342.4999,765 764.9919,765 C 1247.5,1590 1590,1247.51 1590,825"
         style="fill:#2f5d98;fill-opacity:1;fill-rule:nonzero;stroke:none"
         id="path14" /><path
         d="M 957.367,851.688 C 789.203,799.734 601.863,873.512 449.391,752.996 l -64.895,-56.965 v 0 c 53.188,179.953 216.117,330.289 410.109,328.649 116.172,-1.38 234.205,-24.08 343.925,35.71 61.98,28.17 109.46,72.56 151.21,123.93 -31.8,-169.87 -161.37,-292.273 -332.373,-332.632"
         style="fill:#ffffff;fill-opacity:1;fill-rule:nonzero;stroke:none"
         id="path16" /><path
         d="M 1190.35,684.645 C 1050.13,541.289 825.301,528.988 648.922,563.18 c -106.348,20.101 -243.777,7.66 -320.137,-84.801 2.266,4.781 3.328,7.551 4.68,10.691 1.59,3.59 3.223,7.219 4.949,10.66 3.223,7.11 6.672,14.04 10.313,20.918 7.304,13.864 15.539,27.09 24.668,39.672 9.093,12.621 19.074,24.7 29.57,36.219 10.519,11.391 21.465,22.313 33.086,32.68 11.601,10.25 23.855,19.902 36.679,28.531 12.961,8.809 26.575,16.672 40.461,24.074 13.719,7.219 27.774,13.953 42.059,20.051 13.984,5.984 28.281,11.422 42.863,15.66 15.332,4.504 31.063,7.578 46.961,9.356 22.141,2.539 44.531,3.261 66.848,2.941 7.793,-0.109 15.664,-0.363 23.476,-0.402 12.383,-0.106 24.676,-0.106 36.915,0.039 12.363,0.176 24.617,0.429 36.835,1.047 12.215,0.507 24.422,1.308 36.598,2.246 12.082,1.054 24.133,2.363 36.242,3.914 12.082,1.562 24.153,3.379 36.133,5.441 12.024,2.137 24.024,4.531 35.879,7.149 11.965,2.644 23.926,5.586 35.734,8.699 11.876,3.156 23.726,6.601 35.456,10.265 11.73,3.653 23.48,7.645 35.08,11.817 11.55,4.129 22.93,8.66 34.25,13.418 11.2,4.824 22.36,9.824 33.15,15.332 10.73,5.332 21.32,11.133 31.6,17.441 10.1,6.121 20.05,12.723 29.53,19.793 9.3,7.004 18.46,14.582 26.94,22.559 8.6,7.98 16.8,16.457 24.35,25.344 7.67,8.953 14.91,18.379 21.54,28.132 6.83,9.934 13.16,20.196 19,30.645 6.12,10.656 11.71,21.602 17.17,32.629 5.4,11.203 10.6,22.59 15.66,34.01 2.36,5.26 5.64,10.84 7.25,16.46 6.18,-132.775 -44.99,-256.994 -130.36,-351.165"
         style="fill:#ffffff;fill-opacity:1;fill-rule:nonzero;stroke:none"
         id="path18" /></g></g></svg>
